<?xml version="1.0" encoding="UTF-8"?>
<svg width="32px" height="22px" viewBox="0 0 32 22" version="1.1" xmlns="http://www.w3.org/2000/svg" xmlns:xlink="http://www.w3.org/1999/xlink">
    <!-- Generator: Sketch 63.1 (92452) - https://sketch.com -->
    <title>COD</title>
    <desc>Created with Sketch.</desc>
    <defs>
        <rect id="path-1" x="0" y="0" width="32" height="22" rx="2"></rect>
    </defs>
    <g id="Page-2" stroke="none" stroke-width="1" fill="none" fill-rule="evenodd">
        <g id="COD">
            <mask id="mask-2" fill="white">
                <use xlink:href="#path-1"></use>
            </mask>
            <use id="Mask" fill="#FFFFFF" fill-rule="nonzero" xlink:href="#path-1"></use>
            <g id="Group-22" mask="url(#mask-2)">
                <g transform="translate(6.000000, 4.000000)" id="Group-32">
                    <g transform="translate(10.784876, 8.759321) rotate(4.000000) translate(-10.784876, -8.759321) translate(1.784876, 3.259321)">
                        <rect id="Rectangle" stroke="#282C3F" stroke-width="0.869565217" x="0" y="0" width="17.3913043" height="10.4347826" rx="0.869565217"></rect>
                        <path d="M9.23639021,8.69565217 L9.88308367,8.38210702 L7.91012057,6.31270903 C8.09767385,6.27926421 8.28096456,6.22491639 8.45999269,6.14966555 C8.63902083,6.07441472 8.80221654,5.97686734 8.94957983,5.85702341 C9.09694313,5.73717949 9.22482036,5.59573579 9.33321155,5.43269231 C9.44160273,5.26964883 9.51893801,5.08500557 9.56521739,4.87876254 L9.56521739,4.87876254 L10.4347826,4.87876254 L10.4347826,4.18478261 L9.57252466,4.18478261 C9.56034588,4.12346711 9.54085982,4.05588071 9.5140665,3.98202341 C9.48727317,3.90816611 9.45621727,3.83430881 9.42089879,3.76045151 C9.38558032,3.6865942 9.34721715,3.61552397 9.30580928,3.5472408 C9.26440141,3.47895764 9.22177567,3.41973244 9.17793204,3.36956522 L9.17793204,3.36956522 L10.4347826,3.36956522 L10.4347826,2.60869565 L7.06247716,2.60869565 L7.06247716,3.36956522 L7.54841067,3.36956522 C7.73839971,3.36956522 7.90890269,3.39116499 8.05991962,3.43436455 C8.21093655,3.4775641 8.34246742,3.5367893 8.45451224,3.61204013 C8.56655706,3.68729097 8.65911582,3.77438685 8.73218853,3.87332776 C8.80526123,3.97226867 8.86006577,4.07608696 8.89660212,4.18478261 L8.89660212,4.18478261 L7.06247716,4.18478261 L7.06247716,4.87876254 L8.87833394,4.87876254 C8.81744002,5.02926421 8.72366338,5.15746934 8.59700402,5.26337793 C8.47034466,5.36928651 8.32907076,5.45568562 8.17318232,5.52257525 C8.01729387,5.58946488 7.8577518,5.63893534 7.69455608,5.67098662 C7.53136037,5.7030379 7.3827792,5.72045708 7.24881257,5.72324415 L7.24881257,5.72324415 L6.95652174,6.2583612 L9.23639021,8.69565217 Z" id="₹" fill="#282C3F" fill-rule="nonzero"></path>
                        <path d="M2.60869565,0 C2.46376812,0.724637681 2.17391304,1.30434783 1.73913043,1.73913043 C1.30434783,2.17391304 0.724637681,2.46376812 0,2.60869565" id="Path-4" stroke="#282C3F" stroke-width="0.869565217"></path>
                        <path d="M2.60869565,7.82608696 C2.46376812,8.55072464 2.17391304,9.13043478 1.73913043,9.56521739 C1.30434783,10 0.724637681,10.2898551 0,10.4347826" id="Path-4-Copy-2" stroke="#282C3F" stroke-width="0.869565217" transform="translate(1.304348, 9.130435) scale(1, -1) translate(-1.304348, -9.130435) "></path>
                    </g>
                    <g transform="translate(9.897439, 7.205769) rotate(-6.000000) translate(-9.897439, -7.205769) translate(0.897439, 1.705769)">
                        <rect id="Rectangle" stroke="#282C3F" stroke-width="0.869565217" fill="#FFFFFF" x="0" y="0" width="17.3913043" height="10.4347826" rx="0.869565217"></rect>
                        <path d="M9.23639021,8.69565217 L9.88308367,8.38210702 L7.91012057,6.31270903 C8.09767385,6.27926421 8.28096456,6.22491639 8.45999269,6.14966555 C8.63902083,6.07441472 8.80221654,5.97686734 8.94957983,5.85702341 C9.09694313,5.73717949 9.22482036,5.59573579 9.33321155,5.43269231 C9.44160273,5.26964883 9.51893801,5.08500557 9.56521739,4.87876254 L10.4347826,4.87876254 L10.4347826,4.18478261 L9.57252466,4.18478261 C9.56034588,4.12346711 9.54085982,4.05588071 9.5140665,3.98202341 C9.48727317,3.90816611 9.45621727,3.83430881 9.42089879,3.76045151 C9.38558032,3.6865942 9.34721715,3.61552397 9.30580928,3.5472408 C9.26440141,3.47895764 9.22177567,3.41973244 9.17793204,3.36956522 L10.4347826,3.36956522 L10.4347826,2.60869565 L7.06247716,2.60869565 L7.06247716,3.36956522 L7.54841067,3.36956522 C7.73839971,3.36956522 7.90890269,3.39116499 8.05991962,3.43436455 C8.21093655,3.4775641 8.34246742,3.5367893 8.45451224,3.61204013 C8.56655706,3.68729097 8.65911582,3.77438685 8.73218853,3.87332776 C8.80526123,3.97226867 8.86006577,4.07608696 8.89660212,4.18478261 L7.06247716,4.18478261 L7.06247716,4.87876254 L8.87833394,4.87876254 C8.81744002,5.02926421 8.72366338,5.15746934 8.59700402,5.26337793 C8.47034466,5.36928651 8.32907076,5.45568562 8.17318232,5.52257525 C8.01729387,5.58946488 7.8577518,5.63893534 7.69455608,5.67098662 C7.53136037,5.7030379 7.3827792,5.72045708 7.24881257,5.72324415 L6.95652174,6.2583612 L9.23639021,8.69565217 Z" id="₹" fill="#282C3F" fill-rule="nonzero"></path>
                        <path d="M2.60869565,0 C2.46376812,0.724637681 2.17391304,1.30434783 1.73913043,1.73913043 C1.30434783,2.17391304 0.724637681,2.46376812 0,2.60869565" id="Path-4" stroke="#282C3F" stroke-width="0.869565217"></path>
                        <path d="M2.60869565,7.82608696 C2.46376812,8.55072464 2.17391304,9.13043478 1.73913043,9.56521739 C1.30434783,10 0.724637681,10.2898551 0,10.4347826" id="Path-4-Copy-2" stroke="#282C3F" stroke-width="0.869565217" transform="translate(1.304348, 9.130435) scale(1, -1) translate(-1.304348, -9.130435) "></path>
                        <path d="M17.3913043,0 C17.2463768,0.724637681 16.9565217,1.30434783 16.5217391,1.73913043 C16.0869565,2.17391304 15.5072464,2.46376812 14.7826087,2.60869565" id="Path-4-Copy" stroke="#282C3F" stroke-width="0.869565217" transform="translate(16.086957, 1.304348) scale(-1, 1) translate(-16.086957, -1.304348) "></path>
                        <path d="M17.3913043,7.82608696 C17.2463768,8.55072464 16.9565217,9.13043478 16.5217391,9.56521739 C16.0869565,10 15.5072464,10.2898551 14.7826087,10.4347826" id="Path-4-Copy-3" stroke="#282C3F" stroke-width="0.869565217" transform="translate(16.086957, 9.130435) scale(-1, -1) translate(-16.086957, -9.130435) "></path>
                    </g>
                </g>
            </g>
        </g>
    </g>
</svg>