<svg xmlns="http://www.w3.org/2000/svg" width="17" height="16" viewBox="0 0 17 16">
    <path fill="#FFF" fill-rule="nonzero" stroke="#FFF" stroke-width=".2" d="M14.302 4.157L8.677 1.046a.365.365 0 0 0-.354 0l-5.625 3.11A.391.391 0 0 0 2.5 4.5v7c0 .144.076.276.198.343l5.625 3.111a.365.365 0 0 0 .354 0l5.625-3.11a.391.391 0 0 0 .198-.344v-7a.391.391 0 0 0-.198-.343zM8.5 1.83l4.828 2.67-2.015 1.115-4.828-2.67L8.5 1.83zm-.375 12.133L3.25 11.267V5.148l4.875 2.697v6.118zM8.5 7.17L3.672 4.5l2.015-1.115 4.828 2.67L8.5 7.17zm5.25 4.097l-4.875 2.696V7.845l4.875-2.697v6.119z"/>
</svg>
